<svg width="20" height="20" viewBox="0 0 20 20" fill="none" xmlns="http://www.w3.org/2000/svg">
<rect width="20" height="20" fill="#1E1E1E"/>
<path d="M-2688 -527C-2688 -528.105 -2687.1 -529 -2686 -529H1399C1400.1 -529 1401 -528.105 1401 -527V1493C1401 1494.1 1400.1 1495 1399 1495H-2686C-2687.1 1495 -2688 1494.1 -2688 1493V-527Z" fill="#404040"/>
<g clip-path="url(#clip0_10_312)">
<rect width="1366" height="696" transform="translate(-1138 -28)" fill="url(#paint0_linear_10_312)"/>
<rect width="1366" height="696" transform="translate(-1138 -28)" fill="#03123D"/>
<rect width="1366" height="76" transform="translate(-1138 -28)" fill="#03123D"/>
<path d="M13.8555 12.9274L16.6666 15.7384L15.7383 16.6667L12.9273 13.8556C11.9166 14.6643 10.6347 15.148 9.2406 15.148C5.97974 15.148 3.33325 12.5015 3.33325 9.24067C3.33325 5.97982 5.97974 3.33333 9.2406 3.33333C12.5014 3.33333 15.1479 5.97982 15.1479 9.24067C15.1479 10.6348 14.6642 11.9166 13.8555 12.9274ZM12.5387 12.4404C13.3413 11.6132 13.8352 10.4849 13.8352 9.24067C13.8352 6.70215 11.7791 4.64607 9.2406 4.64607C6.70208 4.64607 4.64599 6.70215 4.64599 9.24067C4.64599 11.7792 6.70208 13.8353 9.2406 13.8353C10.4848 13.8353 11.6131 13.3414 12.4403 12.5387L12.5387 12.4404Z" fill="white"/>
<rect x="-7.5" y="-5.5" width="215" height="31" rx="3.5" stroke="white"/>
</g>
<path d="M-2686 -528H1399V-530H-2686V-528ZM1400 -527V1493H1402V-527H1400ZM1399 1494H-2686V1496H1399V1494ZM-2687 1493V-527H-2689V1493H-2687ZM-2686 1494C-2686.55 1494 -2687 1493.55 -2687 1493H-2689C-2689 1494.66 -2687.66 1496 -2686 1496V1494ZM1400 1493C1400 1493.55 1399.55 1494 1399 1494V1496C1400.66 1496 1402 1494.66 1402 1493H1400ZM1399 -528C1399.55 -528 1400 -527.552 1400 -527H1402C1402 -528.657 1400.66 -530 1399 -530V-528ZM-2686 -530C-2687.66 -530 -2689 -528.657 -2689 -527H-2687C-2687 -527.552 -2686.55 -528 -2686 -528V-530Z" fill="white" fill-opacity="0.1"/>
<defs>
<linearGradient id="paint0_linear_10_312" x1="1471" y1="-85" x2="55.0001" y2="838.5" gradientUnits="userSpaceOnUse">
<stop stop-color="#071047"/>
<stop offset="1" stop-color="#FA1C8D"/>
</linearGradient>
<clipPath id="clip0_10_312">
<rect width="1366" height="696" fill="white" transform="translate(-1138 -28)"/>
</clipPath>
</defs>
</svg>
